# xmcd
#
# Track frame offsets: 
#        180
#        20122
#        42454
#        72980
#        95027
#        109574
#        125697
#        141600
#        164095
#        184950
#        208948
#        220354
#        244278
#        260702
#
# Disc length: 3748 seconds
#
# Revision: 0
# Processed by: cddbd v1.5.2PL0 Copyright (c) Steve Scherf et al.
# Submitted via: ExactAudioCopy v1.0b3
#
DISCID=f20ea20e
DTITLE=คาราบาว - บันทึกการแสดงสด "คาราบาว"
DYEAR=1900
DGENRE=Country
TTITLE0=ท.ทหารอดทน
TTITLE1=ทินเนอร์
TTITLE2=ลุงขี้เมา
TTITLE3=คนเก็บฟืน
TTITLE4=ลาวเดินดิน
TTITLE5=กัมพูชา
TTITLE6=หนุ่มสุพรรณ
TTITLE7=โคราช
TTITLE8=กัญชา
TTITLE9=เฉย
TTITLE10=จับกัง
TTITLE11=เดือนเพ็ญ
TTITLE12=แป๊ะขายขวด
TTITLE13=วณิพก
EXTD=
EXTT0=
EXTT1=
EXTT2=
EXTT3=
EXTT4=
EXTT5=
EXTT6=
EXTT7=
EXTT8=
EXTT9=
EXTT10=
EXTT11=
EXTT12=
EXTT13=
PLAYORDER=
